<svg xmlns="http://www.w3.org/2000/svg" width="168" height="48" viewBox="0 0 168 48"><g><g><g><path d="M5 0a5 5 0 0 0-5 5v38a5 5 0 0 0 5 5h158a5 5 0 0 0 5-5V5a5 5 0 0 0-5-5z"/></g><g><g><path fill="#fff" d="M64.596 20.752c-.126-.376-.363-1.263-.712-2.66h-.042c-.139.601-.363 1.488-.67 2.66L62 24.44h3.789zm15.598 8.464c-.838.895-1.878 1.342-3.12 1.342-1.34 0-2.303-.482-2.89-1.446h-.042v5.364H71.88V23.497c0-1.088-.029-2.206-.084-3.351h1.989l.126 1.613h.042c.754-1.216 1.898-1.822 3.434-1.822 1.2 0 2.202.474 3.004 1.423.804.951 1.205 2.201 1.205 3.751 0 1.732-.468 3.1-1.403 4.105zm-1.57-6.473c-.49-.67-1.146-1.006-1.969-1.006a2.35 2.35 0 0 0-1.517.555c-.454.371-.751.856-.89 1.457-.07.28-.105.51-.105.69v1.697c0 .74.227 1.366.68 1.876.455.51 1.044.765 1.77.765.851 0 1.514-.329 1.988-.984.475-.657.712-1.523.712-2.599 0-.991-.222-1.808-.67-2.451zm13.273 6.473c-.837.895-1.877 1.342-3.12 1.342-1.34 0-2.302-.482-2.888-1.446h-.042v5.364h-2.261V23.497c0-1.088-.029-2.206-.084-3.351h1.989l.126 1.613h.042c.753-1.216 1.897-1.822 3.434-1.822 1.2 0 2.201.474 3.005 1.423.8.951 1.203 2.201 1.203 3.751 0 1.732-.468 3.1-1.404 4.105zm-1.57-6.473c-.49-.67-1.144-1.006-1.968-1.006-.559 0-1.065.187-1.519.555-.453.371-.75.856-.888 1.457-.07.28-.105.51-.105.69v1.697c0 .74.227 1.366.679 1.876.453.51 1.043.765 1.77.765.852 0 1.515-.329 1.989-.984.475-.657.712-1.523.712-2.599 0-.991-.223-1.808-.67-2.451zm16.07 3.625c0 1.2-.418 2.178-1.256 2.932-.92.825-2.201 1.236-3.848 1.236-1.52 0-2.739-.292-3.662-.88l.525-1.885c.994.6 2.084.902 3.272.902.852 0 1.516-.193 1.993-.577.474-.384.71-.9.71-1.543 0-.573-.194-1.056-.586-1.447-.39-.392-1.04-.756-1.95-1.092-2.473-.922-3.709-2.273-3.709-4.049 0-1.16.433-2.112 1.3-2.853.865-.742 2.018-1.112 3.46-1.112 1.285 0 2.353.224 3.206.67l-.566 1.845c-.796-.433-1.697-.65-2.704-.65-.796 0-1.419.197-1.864.587-.377.35-.566.775-.566 1.279 0 .558.215 1.02.648 1.382.377.336 1.062.698 2.056 1.09 1.215.49 2.108 1.061 2.683 1.717.572.653.857 1.471.857 2.448m7.465-4.525h-2.492v4.944c0 1.257.44 1.885 1.32 1.885.403 0 .739-.035 1.004-.105l.062 1.718c-.445.167-1.032.25-1.758.25-.893 0-1.59-.272-2.094-.817-.502-.545-.754-1.46-.754-2.745v-5.132h-1.485v-1.698h1.485V18.28l2.22-.67v2.534h2.492v1.7m9.904 7.164c-.937 1.035-2.18 1.55-3.729 1.55-1.493 0-2.682-.495-3.568-1.486-.887-.99-1.33-2.242-1.33-3.75 0-1.577.456-2.87 1.371-3.875.913-1.005 2.145-1.508 3.695-1.508 1.493 0 2.694.495 3.6 1.487.868.963 1.301 2.205 1.301 3.728 0 1.565-.448 2.85-1.34 3.854zm-1.612-6.197c-.474-.813-1.152-1.218-2.03-1.218-.909 0-1.599.406-2.073 1.218-.406.673-.607 1.49-.607 2.458 0 .94.2 1.745.607 2.415.489.813 1.172 1.218 2.053 1.218.863 0 1.54-.413 2.03-1.239.416-.684.626-1.498.626-2.436 0-.94-.2-1.745-.606-2.416zm10.3-.675a3.924 3.924 0 0 0-.712-.063c-.795 0-1.41.3-1.843.902-.376.53-.565 1.201-.565 2.011v5.342h-2.26l.021-6.975c0-1.173-.028-2.242-.084-3.205h1.969l.082 1.948h.063c.239-.67.615-1.209 1.13-1.613a2.733 2.733 0 0 1 1.635-.545c.208 0 .397.014.565.04v2.158m10.028 3.646H135.7c.026 1.006.354 1.775.984 2.305.571.475 1.31.712 2.218.712 1.004 0 1.92-.16 2.745-.481l.354 1.57c-.963.42-2.1.63-3.412.63-1.578 0-2.816-.465-3.717-1.394-.9-.928-1.35-2.175-1.35-3.739 0-1.535.418-2.814 1.257-3.834.878-1.088 2.065-1.633 3.558-1.633 1.467 0 2.577.545 3.33 1.633.598.865.898 1.935.898 3.205 0 .405-.027.747-.083 1.026zm-2.512-3.352c-.391-.63-.992-.943-1.802-.943-.739 0-1.34.306-1.8.922-.376.489-.6 1.076-.668 1.759h4.71v.001c.014-.67-.133-1.25-.44-1.74zm-72.464 7.898l-1.32-4.147h-4.585l-1.256 4.147H58l4.543-14.12h2.806l4.565 14.12z"/></g><g><path fill="#fff" d="M44.54 24.51c.036 4.131 3.614 5.497 3.658 5.512-.021.096-.56 1.97-1.902 3.875-1.121 1.675-2.295 3.314-4.16 3.344-1.812.042-2.422-1.066-4.5-1.066-2.097 0-2.746 1.036-4.484 1.108-1.777.065-3.134-1.79-4.295-3.45-2.322-3.392-4.13-9.558-1.706-13.753 1.174-2.058 3.315-3.383 5.604-3.418 1.779-.037 3.429 1.2 4.522 1.2 1.071 0 3.112-1.48 5.216-1.258.88.026 3.385.348 5 2.704-.13.078-2.983 1.755-2.952 5.202m-3.423-10.137c-.975 1.15-2.535 2.031-4.055 1.918-.2-1.553.57-3.204 1.433-4.212.974-1.143 2.666-2.02 4.02-2.079.177 1.614-.463 3.204-1.398 4.373"/></g></g></g></g></svg>