<svg xmlns="http://www.w3.org/2000/svg" width="168" height="48" viewBox="0 0 168 48"><defs><linearGradient id="6j56a" x1="26.08" x2="26.08" y1="9.17" y2="38.73" gradientUnits="userSpaceOnUse"><stop offset="0" stop-color="#1e79af"/><stop offset="1" stop-color="#63ffd3"/></linearGradient><linearGradient id="6j56b" x1="35.51" x2="20.19" y1="26.08" y2="38.28" gradientUnits="userSpaceOnUse"><stop offset="0" stop-color="#dc4057"/><stop offset="1" stop-color="#9e36bb"/></linearGradient><linearGradient id="6j56c" x1="39.67" x2="39.67" y1="19.31" y2="28.38" gradientUnits="userSpaceOnUse"><stop offset="0" stop-color="#ff9676"/><stop offset="1" stop-color="#ffd074"/></linearGradient><linearGradient id="6j56d" x1="22.56" x2="38.44" y1="9.11" y2="23.93" gradientUnits="userSpaceOnUse"><stop offset="0" stop-color="#51c6ad"/><stop offset="1" stop-color="#d5ffa1"/></linearGradient></defs><g><g><g><path d="M5 0a5 5 0 0 0-5 5v38a5 5 0 0 0 5 5h158a5 5 0 0 0 5-5V5a5 5 0 0 0-5-5z"/></g><g><g><path fill="url(#6j56a)" d="M19.206 9.17c-.544.172-.896.727-.896 1.566l.003 26.433c0 .83.341 1.377.87 1.56L33.85 23.938 19.206 9.17"/></g><g><path fill="url(#6j56b)" d="M19.18 38.721c.38.13.857.07 1.377-.218l17.898-9.926-4.608-4.647L19.18 38.721"/></g><g><path fill="url(#6j56c)" d="M38.46 28.586l6.104-3.384c1.237-.688 1.237-1.809 0-2.495l-6.126-3.397-4.588 4.627 4.61 4.65"/></g><g><path fill="url(#6j56d)" d="M38.44 19.305L20.563 9.392c-.507-.28-.974-.344-1.353-.225l14.643 14.765 4.587-4.627"/></g></g><g><path fill="#fff" d="M67.386 29.298l-2.778.642c-1.126.179-2.137.336-3.207.336-5.359 0-7.401-3.978-7.401-7.091 0-3.802 2.893-7.327 7.848-7.327 1.048 0 2.057.155 2.975.408 1.457.412 2.138.92 2.563 1.219l-1.614 1.545-.68.154.485-.78c-.657-.647-1.865-1.841-4.158-1.841-3.065 0-5.377 2.35-5.377 5.78 0 3.684 2.64 7.15 6.875 7.15 1.244 0 1.884-.253 2.466-.488v-3.158l-2.934.159 1.555-.843h4.117l-.503.49c-.136.116-.154.155-.193.311-.02.179-.039.746-.039.945v2.389m1.317-4.209c0-2.734 2.217-5.073 5.367-5.073 3.045 0 4.951 2.403 4.951 4.926 0 2.464-1.883 5.071-5.263 5.071-3.295 0-5.055-2.584-5.055-4.924zm8.268.932c0-1.843-.872-5.357-3.44-5.357-.685 0-1.366.27-1.864.71-.81.732-.954 1.652-.954 2.555 0 2.067 1.016 5.477 3.524 5.477.809 0 1.635-.396 2.113-1.065.497-.67.621-1.505.621-2.32zm2.76-.932c0-2.734 2.215-5.073 5.367-5.073 3.046 0 4.954 2.403 4.954 4.926 0 2.464-1.886 5.071-5.265 5.071-3.294 0-5.057-2.584-5.057-4.924zm8.27.932c0-1.843-.87-5.357-3.44-5.357-.683 0-1.371.27-1.868.71-.81.732-.953 1.652-.953 2.555 0 2.067 1.012 5.477 3.523 5.477.811 0 1.638-.396 2.116-1.065.5-.67.622-1.505.622-2.32zm11.104-2.16c0 1.548-.866 2.277-1.738 2.968-.268.272-.581.566-.581 1.022 0 .463.313.714.538.9l.749.583c.91.775 1.74 1.486 1.74 2.929 0 1.965-1.887 3.948-5.452 3.948-3.003 0-4.455-1.443-4.455-2.99 0-.752.372-1.817 1.598-2.548 1.284-.792 3.025-.898 3.957-.96-.291-.379-.623-.775-.623-1.423 0-.355.105-.566.207-.815-.226.022-.455.044-.662.044-2.198 0-3.44-1.653-3.44-3.283 0-.96.434-2.027 1.327-2.8 1.182-.981 2.59-1.15 3.71-1.15h4.27l-1.327.755h-1.287c.476.395 1.469 1.232 1.469 2.82zm-3.415 6.436c-.188 0-1.307.04-2.174.334-.46.168-1.785.667-1.785 2.149 0 1.478 1.431 2.544 3.646 2.544 1.99 0 3.046-.96 3.046-2.252 0-1.064-.684-1.625-2.256-2.753-.17-.022-.272-.022-.477-.022zm1.584-5.482c0-1.501-.887-3.838-2.606-3.838-.536 0-1.117.271-1.446.691-.35.435-.455.999-.455 1.54 0 1.398.808 3.715 2.584 3.715.518 0 1.076-.254 1.403-.584.478-.481.52-1.147.52-1.524zm6.02 3.373c0 .812.143.938.823 1.002.354.042.707.06 1.056.103l-.765.46h-3.645c.478-.627.56-.69.56-1.107v-.466l-.008-12.426h-1.61l1.55-.754h2.958c-.64.375-.833.604-.915 1.335l-.005 11.853m9.202 1.105c-.229.127-.457.274-.684.379-.688.315-1.389.395-2.01.395-.663 0-1.7-.044-2.76-.816-1.47-1.045-2.113-2.84-2.113-4.406 0-3.24 2.615-4.83 4.749-4.83.745 0 1.511.189 2.134.586 1.035.69 1.303 1.588 1.452 2.068l-4.872 1.985-1.596.125c.517 2.657 2.3 4.202 4.269 4.202.983 0 1.714-.323 2.384-.657 0 0 .134-.07.038.026zm-1.347-6.789c0-.835-.936-1.799-2.054-1.799-.828 0-2.382.65-2.382 2.908 0 .353.042.728.063 1.103l3.772-1.65c.396-.146.601-.27.601-.562zm8.312 11.258h-1.048V20.217h1.048v1.543c.683-.997 1.93-1.788 3.38-1.788 2.6 0 4.35 1.989 4.35 5.137 0 3.127-1.75 5.157-4.35 5.157-1.368 0-2.594-.712-3.38-1.827zm3.203-12.835c-1.35 0-2.642 1.07-3.203 2.003v4.336c.561.935 1.853 2.044 3.203 2.044 2.175 0 3.401-1.825 3.401-4.201 0-2.373-1.226-4.182-3.4-4.182zm5.96-4.45h1.047v13.545h-1.048zm9.586 12.626a6.02 6.02 0 0 1-.05-.764c-.36.532-.868.974-1.519 1.323-.65.351-1.27.523-2.117.523-1.022 0-1.814-.253-2.38-.767-.564-.513-.848-1.209-.848-2.089 0-.879.411-1.592 1.23-2.138.82-.548 1.879-.82 3.19-.82h2.444v-1.218c0-.702-.237-1.254-.71-1.654-.476-.4-1.143-.603-2.008-.603-.79 0-1.431.185-1.92.545-.483.368-.727.824-.727 1.373h-1.073l-.022-.052c-.039-.74.297-1.39 1.011-1.952.712-.56 1.643-.842 2.79-.842 1.143 0 2.068.278 2.765.831.696.548 1.045 1.34 1.045 2.376v4.837c0 .347.017.683.06 1.01.044.327.115.654.209.97h-1.208c-.07-.34-.123-.639-.162-.89zm-1.373-.478c.65-.395 1.091-.91 1.323-1.532V25.21h-2.457c-.938 0-1.715.21-2.326.632-.612.42-.922.93-.922 1.523 0 .56.196 1.006.587 1.345.392.343.927.512 1.61.512.89 0 1.53-.2 2.185-.597zm4.596 4.252c.224.1.606.163.848.163.64 0 1.087-.264 1.487-1.198l.764-1.745-4.125-9.88h1.168l3.539 8.561 3.504-8.56h1.184l-5.03 11.952c-.523 1.231-1.344 1.823-2.472 1.823-.339 0-.786-.06-1.047-.141l.18-.975"/></g></g></g></svg>