<svg width="1852" height="716" viewBox="0 0 1852 716" fill="none" xmlns="http://www.w3.org/2000/svg">
<g clip-path="url(#clip0)">
<path d="M107.182 298.465C92.5521 298.465 77.9221 297.952 63.2921 296.925C48.9188 296.155 33.9038 294.102 18.2471 290.765V32.045C30.5671 29.735 44.0421 28.0667 58.6721 27.04C73.3021 25.7567 86.9054 25.115 99.4821 25.115C116.422 25.115 131.95 26.3983 146.067 28.965C160.44 31.275 172.76 35.3817 183.027 41.285C193.294 47.1883 201.25 55.0167 206.897 64.77C212.8 74.2666 215.752 86.0733 215.752 100.19C215.752 121.493 205.485 138.305 184.952 150.625C201.892 157.042 213.442 165.768 219.602 176.805C225.762 187.842 228.842 200.29 228.842 214.15C228.842 242.127 218.575 263.173 198.042 277.29C177.765 291.407 147.479 298.465 107.182 298.465ZM76.7671 178.73V247.645C81.1304 248.158 85.8788 248.543 91.0121 248.8C96.1454 249.057 101.792 249.185 107.952 249.185C125.919 249.185 140.42 246.618 151.457 241.485C162.494 236.352 168.012 226.855 168.012 212.995C168.012 200.675 163.392 191.948 154.152 186.815C144.912 181.425 131.694 178.73 114.497 178.73H76.7671ZM76.7671 132.915H106.027C124.507 132.915 137.725 130.605 145.682 125.985C153.639 121.108 157.617 113.408 157.617 102.885C157.617 92.105 153.51 84.5333 145.297 80.17C137.084 75.8067 125.02 73.625 109.107 73.625C103.974 73.625 98.4554 73.7533 92.5521 74.01C86.6487 74.01 81.3871 74.2667 76.7671 74.78V132.915ZM455.649 295C452.826 285.76 449.618 276.263 446.024 266.51C442.688 256.757 439.351 247.003 436.014 237.25H332.064C328.728 247.003 325.263 256.757 321.669 266.51C318.333 276.263 315.253 285.76 312.429 295H250.059C260.069 266.253 269.566 239.688 278.549 215.305C287.533 190.922 296.259 167.95 304.729 146.39C313.456 124.83 321.926 104.425 330.139 85.175C338.609 65.6683 347.336 46.675 356.319 28.195H413.684C422.411 46.675 431.009 65.6683 439.479 85.175C447.949 104.425 456.419 124.83 464.889 146.39C473.616 167.95 482.471 190.922 491.454 215.305C500.438 239.688 509.934 266.253 519.944 295H455.649ZM383.654 88.64C382.371 92.49 380.446 97.7517 377.879 104.425C375.313 111.098 372.361 118.798 369.024 127.525C365.688 136.252 361.966 145.877 357.859 156.4C354.009 166.923 350.031 177.96 345.924 189.51H421.769C417.663 177.96 413.684 166.923 409.834 156.4C405.984 145.877 402.263 136.252 398.669 127.525C395.333 118.798 392.381 111.098 389.814 104.425C387.248 97.7517 385.194 92.49 383.654 88.64ZM638.238 249.185C646.708 249.185 653.638 248.543 659.028 247.26C664.675 245.72 669.167 243.795 672.503 241.485C675.84 238.918 678.15 235.967 679.433 232.63C680.717 229.293 681.358 225.572 681.358 221.465C681.358 212.738 677.252 205.552 669.038 199.905C660.825 194.002 646.708 187.713 626.688 181.04C617.962 177.96 609.235 174.495 600.508 170.645C591.782 166.538 583.953 161.533 577.023 155.63C570.093 149.47 564.447 142.155 560.083 133.685C555.72 124.958 553.538 114.435 553.538 102.115C553.538 89.795 555.848 78.7583 560.468 69.005C565.088 58.995 571.633 50.525 580.103 43.595C588.573 36.665 598.84 31.4033 610.903 27.81C622.967 23.96 636.57 22.035 651.713 22.035C669.68 22.035 685.208 23.96 698.298 27.81C711.388 31.66 722.168 35.895 730.638 40.515L713.313 87.87C705.87 84.02 697.528 80.6833 688.288 77.86C679.305 74.78 668.397 73.24 655.563 73.24C641.19 73.24 630.795 75.2933 624.378 79.4C618.218 83.25 615.138 89.2817 615.138 97.495C615.138 102.372 616.293 106.478 618.603 109.815C620.913 113.152 624.122 116.232 628.228 119.055C632.592 121.622 637.468 124.06 642.858 126.37C648.505 128.423 654.665 130.605 661.338 132.915C675.198 138.048 687.262 143.182 697.528 148.315C707.795 153.192 716.265 158.967 722.938 165.64C729.868 172.313 735.002 180.142 738.338 189.125C741.675 198.108 743.343 209.017 743.343 221.85C743.343 246.747 734.617 266.125 717.163 279.985C699.71 293.588 673.402 300.39 638.238 300.39C626.432 300.39 615.78 299.62 606.283 298.08C596.787 296.797 588.317 295.128 580.873 293.075C573.687 291.022 567.398 288.84 562.008 286.53C556.875 284.22 552.512 282.038 548.918 279.985L565.858 232.245C573.815 236.608 583.568 240.587 595.118 244.18C606.925 247.517 621.298 249.185 638.238 249.185ZM873.485 25.115C913.269 25.115 943.812 32.1733 965.115 46.29C986.419 60.15 997.07 82.9933 997.07 114.82C997.07 146.903 986.29 170.132 964.73 184.505C943.17 198.622 912.37 205.68 872.33 205.68H853.465V295H793.405V32.045C806.495 29.4783 820.355 27.6817 834.985 26.655C849.615 25.6283 862.449 25.115 873.485 25.115ZM877.335 76.32C872.972 76.32 868.609 76.4483 864.245 76.705C860.139 76.9617 856.545 77.2183 853.465 77.475V154.475H872.33C893.12 154.475 908.777 151.652 919.3 146.005C929.824 140.358 935.085 129.835 935.085 114.435C935.085 106.992 933.674 100.832 930.85 95.955C928.284 91.0783 924.434 87.2283 919.3 84.405C914.424 81.325 908.392 79.2717 901.205 78.245C894.019 76.9617 886.062 76.32 877.335 76.32ZM1197.35 295C1194.52 285.76 1191.31 276.263 1187.72 266.51C1184.38 256.757 1181.05 247.003 1177.71 237.25H1073.76C1070.42 247.003 1066.96 256.757 1063.37 266.51C1060.03 276.263 1056.95 285.76 1054.13 295H991.756C1001.77 266.253 1011.26 239.688 1020.25 215.305C1029.23 190.922 1037.96 167.95 1046.43 146.39C1055.15 124.83 1063.62 104.425 1071.84 85.175C1080.31 65.6683 1089.03 46.675 1098.02 28.195H1155.38C1164.11 46.675 1172.71 65.6683 1181.18 85.175C1189.65 104.425 1198.12 124.83 1206.59 146.39C1215.31 167.95 1224.17 190.922 1233.15 215.305C1242.13 239.688 1251.63 266.253 1261.64 295H1197.35ZM1125.35 88.64C1124.07 92.49 1122.14 97.7517 1119.58 104.425C1117.01 111.098 1114.06 118.798 1110.72 127.525C1107.38 136.252 1103.66 145.877 1099.56 156.4C1095.71 166.923 1091.73 177.96 1087.62 189.51H1163.47C1159.36 177.96 1155.38 166.923 1151.53 156.4C1147.68 145.877 1143.96 136.252 1140.37 127.525C1137.03 118.798 1134.08 111.098 1131.51 104.425C1128.94 97.7517 1126.89 92.49 1125.35 88.64ZM1479.05 295C1461.85 264.457 1443.25 234.298 1423.23 204.525C1403.21 174.752 1381.9 146.647 1359.32 120.21V295H1300.03V28.195H1348.92C1357.39 36.665 1366.76 47.06 1377.03 59.38C1387.29 71.7 1397.69 84.9183 1408.21 99.035C1418.99 112.895 1429.64 127.397 1440.17 142.54C1450.69 157.427 1460.57 171.8 1469.81 185.66V28.195H1529.49V295H1479.05ZM1773.52 295C1770.7 285.76 1767.49 276.263 1763.9 266.51C1760.56 256.757 1757.22 247.003 1753.89 237.25H1649.94C1646.6 247.003 1643.14 256.757 1639.54 266.51C1636.21 276.263 1633.13 285.76 1630.3 295H1567.93C1577.94 266.253 1587.44 239.688 1596.42 215.305C1605.41 190.922 1614.13 167.95 1622.6 146.39C1631.33 124.83 1639.8 104.425 1648.01 85.175C1656.48 65.6683 1665.21 46.675 1674.19 28.195H1731.56C1740.28 46.675 1748.88 65.6683 1757.35 85.175C1765.82 104.425 1774.29 124.83 1782.76 146.39C1791.49 167.95 1800.34 190.922 1809.33 215.305C1818.31 239.688 1827.81 266.253 1837.82 295H1773.52ZM1701.53 88.64C1700.24 92.49 1698.32 97.7517 1695.75 104.425C1693.19 111.098 1690.23 118.798 1686.9 127.525C1683.56 136.252 1679.84 145.877 1675.73 156.4C1671.88 166.923 1667.9 177.96 1663.8 189.51H1739.64C1735.54 177.96 1731.56 166.923 1727.71 156.4C1723.86 145.877 1720.14 136.252 1716.54 127.525C1713.21 118.798 1710.25 111.098 1707.69 104.425C1705.12 97.7517 1703.07 92.49 1701.53 88.64Z" fill="white"/>
<path d="M66.158 510.109C70.3673 517.38 75.055 526.277 80.221 536.8C85.387 547.323 90.6487 558.421 96.006 570.092C101.363 581.572 106.625 593.339 111.791 605.393C117.148 617.256 122.027 628.257 126.428 638.398C130.829 628.257 135.612 617.256 140.778 605.393C145.944 593.339 151.206 581.572 156.563 570.092C161.92 558.421 167.182 547.323 172.348 536.8C177.514 526.277 182.202 517.38 186.411 510.109H219.129C220.851 524.65 222.477 540.148 224.008 556.603C225.539 572.866 226.878 589.608 228.026 606.828C229.365 623.857 230.513 641.077 231.47 658.488C232.618 675.708 233.575 692.545 234.34 709H198.752C197.987 685.849 197.03 662.028 195.882 637.537C194.925 613.046 193.395 589.321 191.29 566.361C189.185 570.762 186.698 576.023 183.828 582.146C180.958 588.269 177.897 594.965 174.644 602.236C171.391 609.315 168.043 616.682 164.599 624.335C161.346 631.988 158.094 639.45 154.841 646.721C151.78 653.8 148.91 660.497 146.231 666.811C143.552 672.934 141.256 678.195 139.343 682.596H112.365C110.452 678.195 108.156 672.838 105.477 666.524C102.798 660.21 99.8327 653.513 96.58 646.434C93.5187 639.163 90.266 631.701 86.822 624.048C83.5693 616.395 80.3167 609.028 77.064 601.949C73.8113 594.87 70.75 588.269 67.88 582.146C65.01 575.832 62.5227 570.57 60.418 566.361C58.3133 589.321 56.687 613.046 55.539 637.537C54.5823 662.028 53.7213 685.849 52.956 709H17.368C18.1333 692.545 18.9943 675.517 19.951 657.914C21.099 640.311 22.247 622.9 23.395 605.68C24.7343 588.269 26.1693 571.431 27.7 555.168C29.2307 538.905 30.857 523.885 32.579 510.109H66.158ZM546.248 709C543.57 701.155 540.795 693.406 537.925 685.753C535.055 678.1 532.281 670.255 529.602 662.219H445.798C443.12 670.255 440.345 678.195 437.475 686.04C434.797 693.693 432.118 701.347 429.439 709H391.842C399.304 687.762 406.384 668.15 413.08 650.165C419.777 632.18 426.282 615.151 432.596 599.079C439.102 583.007 445.511 567.7 451.825 553.159C458.139 538.618 464.645 524.268 471.341 510.109H505.494C512.191 524.268 518.696 538.618 525.01 553.159C531.324 567.7 537.638 583.007 543.952 599.079C550.458 615.151 557.059 632.18 563.755 650.165C570.643 668.15 577.818 687.762 585.28 709H546.248ZM487.7 548.567C483.3 558.708 478.229 571.049 472.489 585.59C466.941 600.131 461.105 615.916 454.982 632.945H520.418C514.296 615.916 508.364 600.036 502.624 585.303C496.884 570.57 491.91 558.325 487.7 548.567ZM802.997 508.1C831.697 508.1 853.605 513.362 868.72 523.885C884.027 534.408 891.68 550.48 891.68 572.101C891.68 599.079 878.382 617.351 851.787 626.918C855.422 631.319 859.536 636.676 864.128 642.99C868.72 649.304 873.408 656.192 878.191 663.654C882.974 670.925 887.566 678.482 891.967 686.327C896.368 693.98 900.29 701.538 903.734 709H863.267C859.632 702.112 855.709 695.224 851.5 688.336C847.291 681.257 842.986 674.464 838.585 667.959C834.376 661.262 830.166 655.044 825.957 649.304C821.748 643.373 817.825 638.111 814.19 633.519C811.511 633.71 809.215 633.806 807.302 633.806C805.389 633.806 803.571 633.806 801.849 633.806H784.342V709H748.18V512.979C756.981 511.066 766.357 509.822 776.306 509.248C786.255 508.483 795.152 508.1 802.997 508.1ZM805.58 539.383C797.927 539.383 790.847 539.67 784.342 540.244V604.532H800.127C808.928 604.532 816.677 604.054 823.374 603.097C830.071 602.14 835.619 600.418 840.02 597.931C844.612 595.444 848.056 592.095 850.352 587.886C852.648 583.677 853.796 578.319 853.796 571.814C853.796 565.691 852.648 560.525 850.352 556.316C848.056 552.107 844.708 548.758 840.307 546.271C836.098 543.784 831.027 542.062 825.096 541.105C819.165 539.957 812.659 539.383 805.58 539.383ZM1188.34 709C1183.36 701.347 1177.62 693.311 1171.12 684.892C1164.61 676.473 1157.72 668.342 1150.45 660.497C1143.37 652.652 1136.01 645.19 1128.35 638.111C1120.7 631.032 1113.14 624.909 1105.68 619.743V709H1069.52V510.109H1105.68V592.191C1112 585.877 1118.6 579.18 1125.48 572.101C1132.37 564.83 1139.16 557.56 1145.86 550.289C1152.75 542.827 1159.25 535.652 1165.38 528.764C1171.5 521.876 1177.05 515.658 1182.02 510.109H1225.36C1219.05 517.38 1212.35 524.937 1205.27 532.782C1198.19 540.627 1190.92 548.567 1183.46 556.603C1176 564.448 1168.44 572.292 1160.79 580.137C1153.32 587.982 1145.96 595.444 1138.69 602.523C1146.72 608.646 1154.85 615.821 1163.08 624.048C1171.5 632.084 1179.73 640.79 1187.76 650.165C1195.8 659.349 1203.45 669.011 1210.72 679.152C1218.19 689.101 1224.98 699.051 1231.1 709H1188.34ZM1394.22 709V510.109H1521.94V540.818H1430.38V589.895H1511.89V620.03H1430.38V678.291H1528.82V709H1394.22ZM1838.77 510.109V541.392H1777.64V709H1741.19V541.392H1680.06V510.109H1838.77Z" fill="white"/>
<line x1="1847.01" y1="428.5" x2="15.9999" y2="428.5" stroke="white" stroke-width="13"/>
</g>
<defs>
<clipPath id="clip0">
<rect width="1852" height="716" fill="white"/>
</clipPath>
</defs>
</svg>
